<?xml version="1.0" encoding="iso-8859-1"?>
<!-- Generator: Adobe Illustrator 16.0.0, SVG Export Plug-In . SVG Version: 6.00 Build 0)  -->
<!DOCTYPE svg PUBLIC "-//W3C//DTD SVG 1.1//EN" "http://www.w3.org/Graphics/SVG/1.1/DTD/svg11.dtd">
<svg version="1.1" id="Capa_1" xmlns="http://www.w3.org/2000/svg" xmlns:xlink="http://www.w3.org/1999/xlink" x="0px" y="0px"
	 width="45.469px" height="45.469px" viewBox="0 0 45.469 45.469" style="enable-background:new 0 0 45.469 45.469;"
	 xml:space="preserve">
<g>
	<g>
		<path d="M24.611,27.43c0.32,0,0.578-0.258,0.578-0.577v-7.705c0-0.318-0.258-0.577-0.578-0.577h-3.755
			c-0.319,0-0.577,0.258-0.577,0.577v7.706c0,0.318,0.258,0.577,0.577,0.577L24.611,27.43L24.611,27.43z"/>
		<path d="M29.245,29.333c0,1.149-0.964,2.047-2.113,2.047h-8.688c-1.149,0-2.113-0.897-2.113-2.047V25.19H0v15.781
			c0,2.455,2.042,4.497,4.497,4.497h36.582c2.454,0,4.39-2.042,4.39-4.497V25.19H29.245V29.333z"/>
		<path d="M41.078,9.926h-3.51V7.355C37.568,3.27,34.29,0,30.205,0H15.369c-4.085,0-7.364,3.27-7.364,7.355v2.571H4.497
			C2.042,9.926,0,11.944,0,14.398v5.774h16.33V16.69c0-1.149,0.964-2.067,2.113-2.067h8.688c1.148,0,2.113,0.918,2.113,2.067v3.482
			h16.223v-5.774C45.468,11.944,43.532,9.926,41.078,9.926z M31.7,9.926H13.875V7.355c0-0.814,0.68-1.484,1.494-1.484h14.836
			c0.814,0,1.494,0.67,1.494,1.484L31.7,9.926L31.7,9.926z"/>
	</g>
</g>
<g>
</g>
<g>
</g>
<g>
</g>
<g>
</g>
<g>
</g>
<g>
</g>
<g>
</g>
<g>
</g>
<g>
</g>
<g>
</g>
<g>
</g>
<g>
</g>
<g>
</g>
<g>
</g>
<g>
</g>
</svg>
