<?xml version="1.0" encoding="iso-8859-1"?>
<!-- Generator: Adobe Illustrator 18.0.0, SVG Export Plug-In . SVG Version: 6.00 Build 0)  -->
<!DOCTYPE svg PUBLIC "-//W3C//DTD SVG 1.1//EN" "http://www.w3.org/Graphics/SVG/1.1/DTD/svg11.dtd">
<svg version="1.1" id="Capa_1" xmlns="http://www.w3.org/2000/svg" xmlns:xlink="http://www.w3.org/1999/xlink" x="0px" y="0px"
	 viewBox="0 0 370 370" style="enable-background:new 0 0 370 370;" xml:space="preserve">
<path style="fill:#101010;" d="M314.834,50.23C280.024,20.045,233.915,3.423,185,3.423c-48.915,0-95.024,16.622-129.834,46.807
	C19.593,81.077,0,122.317,0,166.351c0,43.132,19.228,84.073,53.263,114.441c-15.777,27.354-42.246,53.008-42.551,53.302
	c-5.764,5.544-7.408,14.117-4.108,21.4c3.079,6.789,9.832,11.083,17.188,11.083c0.539,0,1.083-0.023,1.628-0.07
	c3.169-0.273,76.435-6.887,140.011-38.139c6.518,0.605,13.079,0.912,19.57,0.912c48.915,0,95.024-16.623,129.834-46.807
	C350.407,251.624,370,210.385,370,166.351C370,122.317,350.407,81.077,314.834,50.23z M90.611,185
	c-15.741,0-28.551-12.808-28.551-28.551c0-15.742,12.81-28.55,28.551-28.55c15.744,0,28.551,12.808,28.551,28.55
	C119.162,172.192,106.355,185,90.611,185z M185,185c-15.742,0-28.551-12.808-28.551-28.551c0-15.742,12.809-28.55,28.551-28.55
	s28.551,12.808,28.551,28.55C213.551,172.192,200.742,185,185,185z M279.389,185c-15.744,0-28.551-12.808-28.551-28.551
	c0-15.742,12.807-28.55,28.551-28.55c15.741,0,28.551,12.808,28.551,28.55C307.94,172.192,295.13,185,279.389,185z"/>
<g>
</g>
<g>
</g>
<g>
</g>
<g>
</g>
<g>
</g>
<g>
</g>
<g>
</g>
<g>
</g>
<g>
</g>
<g>
</g>
<g>
</g>
<g>
</g>
<g>
</g>
<g>
</g>
<g>
</g>
</svg>
