<?xml version="1.0" encoding="iso-8859-1"?>
<!-- Generator: Adobe Illustrator 21.0.0, SVG Export Plug-In . SVG Version: 6.00 Build 0)  -->
<svg xmlns="http://www.w3.org/2000/svg" xmlns:xlink="http://www.w3.org/1999/xlink" version="1.1" id="Capa_1" x="0px" y="0px" viewBox="0 0 511.953 511.953" style="enable-background:new 0 0 511.953 511.953;" xml:space="preserve" width="512" height="512">
<g>
	<path style="fill-rule:evenodd;clip-rule:evenodd;" d="M511.714,476.59l-4.638-42.339H340.888l5.535,38.672   c0.982,6.885,0.151,14.794-2.134,21.328H496.95C506.34,494.251,513.353,485.752,511.714,476.59z"/>
	<path style="fill-rule:evenodd;clip-rule:evenodd;" d="M474.375,135.669c-0.644-6.056-6.82-13.418-14.883-13.418h-65.414v55.534   c0,8.284-6.716,15-15,15c-8.284,0-15-6.716-15-15v-55.534H246.822v55.534c0,8.284-6.716,15-15,15c-8.284,0-15-6.716-15-15v-55.534   h-65.453c-8.071,0-14.653,6.375-14.986,14.365c-2.712,24.92-5.439,49.845-8.171,74.769l141.823-0.133   c11.693,0,22.383,4.523,30.428,11.929c7.944,7.312,13.254,17.459,14.346,28.854l21.784,152.216H503.79   C493.983,314.724,484.177,225.197,474.375,135.669z"/>
	<path style="fill-rule:evenodd;clip-rule:evenodd;" d="M246.822,106.329c0-32.215,26.412-58.627,58.627-58.627   c32.214,0,58.628,26.414,58.628,58.627v15.923h30v-15.923c0-48.773-39.852-88.627-88.628-88.627   c-48.776,0-88.627,39.851-88.627,88.627v15.923h30V106.329z"/>
	<path style="fill-rule:evenodd;clip-rule:evenodd;" d="M284.984,255.012c-0.63-7.704-7.082-13.76-14.949-13.76l-223.2,0.026   c-7.342-0.009-13.76,5.387-14.824,12.865L0.26,476.203c-1.739,9.973,5.485,18.048,14.69,18.048l287-0.026   c9.081-0.011,16.111-8.034,14.824-17.083L284.984,255.012z M158.45,367.68c-39.631,0-72.001-32.369-72.001-72.001   c0-8.284,6.716-15,15-15c8.284,0,15,6.716,15,15c0,23.07,18.931,42.001,42.001,42.001c23.07,0,42.001-18.931,42.001-42.001   c0-8.284,6.716-15,15-15c8.284,0,15,6.716,15,15C230.451,335.31,198.081,367.68,158.45,367.68z"/>
</g>















</svg>
