<?xml version="1.0" encoding="iso-8859-1"?>
<!-- Generator: Adobe Illustrator 16.0.0, SVG Export Plug-In . SVG Version: 6.00 Build 0)  -->
<!DOCTYPE svg PUBLIC "-//W3C//DTD SVG 1.1//EN" "http://www.w3.org/Graphics/SVG/1.1/DTD/svg11.dtd">
<svg version="1.1" id="Capa_1" xmlns="http://www.w3.org/2000/svg" xmlns:xlink="http://www.w3.org/1999/xlink" x="0px" y="0px"
	 width="289.52px" height="289.52px" viewBox="0 0 289.52 289.52" style="enable-background:new 0 0 289.52 289.52;"
	 xml:space="preserve">
<g>
	<g>
		<path d="M24.736,74.421c-0.051,21.383-0.015,42.764-0.015,64.145c0,7.518-0.218,15.049,0.107,22.554
			c0.259,6.155,4.682,10.161,10.404,10.182c5.789,0.016,9.979-3.95,10.501-10.075c0.163-1.868,0.051-3.757,0.051-5.636
			c0.005-19.264-0.051-38.535,0.112-57.795c0.015-1.653,1.447-3.303,2.219-4.951c1.021,1.686,2.295,3.277,2.971,5.09
			c0.462,1.239,0.092,2.788,0.092,4.197c0,57.095-0.01,114.191,0.005,171.288c0.005,10.064,4.687,15.935,12.685,16.097
			c8.47,0.168,13.218-5.56,13.254-16.219c0.051-16.442,0.01-32.89,0.01-49.338c0-15.741-0.106-31.483,0.127-47.225
			c0.025-1.915,1.803-3.809,2.768-5.708c0.828,0.33,1.65,0.66,2.478,1c0,2.783,0,5.566,0,8.344c0,31.483,0.021,62.967-0.02,94.45
			c-0.01,5.891,1.752,11.477,7.49,13.021c4.209,1.137,10.405,0.889,13.513-1.555c3.199-2.519,5.195-8.419,5.22-12.862
			c0.325-57.792,0.208-115.6,0.193-173.397c0-0.942-0.355-1.988-0.046-2.793c0.584-1.519,1.534-2.897,2.331-4.332
			c0.889,1.32,2.305,2.554,2.554,3.989c0.432,2.511,0.162,5.146,0.162,7.726c-0.005,17.857-0.086,35.713-0.005,53.568
			c0.036,8.506,3.783,13.024,10.456,13.101c6.86,0.076,10.481-4.25,10.491-12.821c0.03-28.424,0.076-56.854-0.021-85.28
			c-0.045-14.086-8.181-22.109-22.434-22.183c-21.378-0.109-42.762-0.099-64.135-0.03C32.845,51.016,24.771,59.093,24.736,74.421z"
			/>
		<path d="M100.819,21.117C100.911,9.417,91.593-0.01,79.949,0C68.274,0.011,58.753,9.471,58.83,20.982
			c0.081,11.263,9.354,20.546,20.652,20.665C91.435,41.777,100.733,32.832,100.819,21.117z"/>
		<path d="M243.886,158.18c0.035,8.5,3.783,13.029,10.456,13.101c6.859,0.076,10.48-4.25,10.49-12.816
			c0.031-28.429,0.076-56.858-0.02-85.285c-0.046-14.086-8.181-22.109-22.435-22.183c-21.379-0.109-42.762-0.099-64.136-0.031
			c-15.401,0.046-23.475,8.123-23.511,23.456c-0.051,21.383-0.015,42.764-0.015,64.145c0,7.518-0.219,15.049,0.106,22.554
			c0.259,6.155,4.682,10.161,10.404,10.182c5.789,0.016,9.979-3.95,10.502-10.075c0.162-1.868,0.051-3.757,0.051-5.636
			c0.005-19.264-0.051-38.535,0.111-57.795c0.016-1.653,1.447-3.303,2.219-4.951c1.021,1.686,2.296,3.277,2.971,5.09
			c0.462,1.239,0.092,2.788,0.092,4.197c0,57.095-0.011,114.191,0.005,171.288c0.005,10.064,4.688,15.935,12.685,16.097
			c8.471,0.168,13.218-5.56,13.254-16.219c0.051-16.442,0.01-32.89,0.01-49.338c0-15.741-0.106-31.483,0.127-47.225
			c0.025-1.915,1.803-3.809,2.768-5.708c0.828,0.33,1.65,0.66,2.479,1c0,2.783,0,5.566,0,8.344c0,31.483,0.021,62.967-0.021,94.45
			c-0.01,5.891,1.752,11.477,7.49,13.021c4.209,1.137,10.404,0.889,13.512-1.555c3.199-2.519,5.195-8.419,5.221-12.862
			c0.325-57.792,0.208-115.6,0.193-173.397c0-0.942-0.355-1.988-0.046-2.793c0.584-1.519,1.533-2.897,2.331-4.332
			c0.888,1.32,2.305,2.554,2.554,3.989c0.432,2.511,0.162,5.146,0.162,7.726C243.886,122.469,243.805,140.325,243.886,158.18z"/>
		<path d="M230.815,21.117c0.092-11.7-9.227-21.127-20.87-21.117c-11.674,0.011-21.195,9.471-21.119,20.982
			c0.081,11.263,9.354,20.546,20.652,20.665C221.431,41.777,230.729,32.832,230.815,21.117z"/>
	</g>
</g>
<g>
</g>
<g>
</g>
<g>
</g>
<g>
</g>
<g>
</g>
<g>
</g>
<g>
</g>
<g>
</g>
<g>
</g>
<g>
</g>
<g>
</g>
<g>
</g>
<g>
</g>
<g>
</g>
<g>
</g>
</svg>
